<svg xmlns="http://www.w3.org/2000/svg" xmlns:xlink="http://www.w3.org/1999/xlink" width="2000" zoomAndPan="magnify" viewBox="0 0 1500 1499.999933" height="2000" preserveAspectRatio="xMidYMid meet" version="1.0"><defs><clipPath id="21e053389d"><path d="M 451 549 L 1050 549 L 1050 869.617188 L 451 869.617188 Z M 451 549 " clip-rule="nonzero"/></clipPath><clipPath id="b5dc5ce8de"><rect x="0" width="599" y="0" height="321"/></clipPath></defs><rect x="-150" width="1800" fill="#ffffff" y="-149.999993" height="1799.99992" fill-opacity="1"/><rect x="-150" width="1800" fill="#3b82f6" y="-149.999993" height="1799.99992" fill-opacity="1"/><g clip-path="url(#21e053389d)"><g transform="matrix(1, 0, 0, 1, 451, 549)"><g clip-path="url(#b5dc5ce8de)"><path fill="#ffffff" d="M 6.015625 42.046875 C 28.472656 11.773438 69.351562 -0.691406 105.878906 14.242188 L 231.859375 65.773438 L 418.597656 142.167969 C 429.394531 146.582031 446.675781 146.03125 457.15625 140.941406 L 547.386719 97.125 C 557.886719 92.03125 575.484375 90.511719 586.703125 93.722656 C 586.703125 93.722656 590.402344 94.777344 594.964844 96.089844 C 599.527344 97.398438 599.972656 101.898438 596 106.167969 L 503.824219 204.386719 C 479.886719 229.90625 434.210938 239.855469 401.804688 226.609375 L 278.824219 176.285156 L 315.839844 310.609375 C 317.378906 316.230469 314.273438 318.976562 308.867188 316.757812 L 298.726562 312.636719 C 277.132812 303.808594 249.816406 280.503906 237.625 260.519531 L 155.675781 125.878906 L 15.246094 68.433594 C 4.449219 64.019531 -0.914062 51.425781 6.015625 42.046875 Z M 6.015625 42.046875 " fill-opacity="1" fill-rule="nonzero"/><path fill="#ffffff" d="M 329 82.671875 L 242.867188 47.457031 L 309.203125 18.40625 C 332.804688 8.054688 369.605469 6.449219 396.480469 13.863281 C 402.097656 15.40625 402.859375 20.285156 398.402344 24.046875 Z M 329 82.671875 " fill-opacity="1" fill-rule="nonzero"/></g></g></g><path stroke-linecap="round" transform="matrix(0.75, 0, 0, 0.75, 393.007178, 924.380756)" fill="none" stroke-linejoin="miter" d="M 18.500848 18.497535 L 933.480093 18.497535 " stroke="#ffffff" stroke-width="37" stroke-opacity="1" stroke-miterlimit="4"/></svg>
